<svg width="26" height="26" viewBox="0 0 26 26" fill="none" xmlns="http://www.w3.org/2000/svg">
<rect width="26" height="26" rx="13" fill="#111111"/>
<path fill-rule="evenodd" clip-rule="evenodd" d="M15.1875 9.79744C15.1875 8.51799 14.0882 7.49319 12.7856 7.61957L12.784 7.61972C11.7215 7.71888 10.8125 8.79554 10.8125 9.90828V10.4741C10.8125 10.7157 10.6166 10.9116 10.375 10.9116C10.1334 10.9116 9.9375 10.7157 9.9375 10.4741V9.90828C9.9375 8.39627 11.1398 6.89484 12.7019 6.74858C14.5256 6.57211 16.0625 8.00883 16.0625 9.79744V10.6024C16.0625 10.8441 15.8666 11.0399 15.625 11.0399C15.3834 11.0399 15.1875 10.8441 15.1875 10.6024V9.79744Z" fill="white"/>
<path fill-rule="evenodd" clip-rule="evenodd" d="M7.9679 11.1433C8.48439 10.5293 9.3699 10.2291 10.6667 10.2291H15.3333C16.6301 10.2291 17.5156 10.5293 18.0321 11.1433C18.5444 11.7524 18.5924 12.553 18.5099 13.2989L18.5092 13.3051L18.0721 16.8013C18.0076 17.4 17.8566 18.0557 17.3223 18.5438C16.7908 19.0294 15.9673 19.2708 14.75 19.2708H11.25C10.0327 19.2708 9.20923 19.0294 8.67773 18.5438C8.14343 18.0557 7.9924 17.4 7.92791 16.8013L7.49012 13.2989C7.40757 12.553 7.45558 11.7524 7.9679 11.1433ZM8.35952 13.1997L8.79758 16.7042C8.85583 17.2478 8.97649 17.6316 9.2679 17.8978C9.56328 18.1676 10.1223 18.3958 11.25 18.3958H14.75C15.8777 18.3958 16.4367 18.1676 16.7321 17.8978C17.0235 17.6316 17.1443 17.2478 17.2025 16.7042L17.2033 16.6965L17.6405 13.1996C17.7149 12.5238 17.6372 12.0332 17.3625 11.7066C17.0915 11.3844 16.5274 11.1041 15.3333 11.1041H10.6667C9.47261 11.1041 8.90853 11.3844 8.63752 11.7066C8.36276 12.0332 8.28512 12.5238 8.35952 13.1997Z" fill="white"/>
<path fill-rule="evenodd" clip-rule="evenodd" d="M14.4557 13C14.4557 12.6778 14.7169 12.4166 15.039 12.4166H15.0443C15.3664 12.4166 15.6276 12.6778 15.6276 13C15.6276 13.3221 15.3664 13.5833 15.0443 13.5833H15.039C14.7169 13.5833 14.4557 13.3221 14.4557 13Z" fill="white"/>
<path fill-rule="evenodd" clip-rule="evenodd" d="M10.3718 13C10.3718 12.6778 10.633 12.4166 10.9551 12.4166H10.9604C11.2825 12.4166 11.5437 12.6778 11.5437 13C11.5437 13.3221 11.2825 13.5833 10.9604 13.5833H10.9551C10.633 13.5833 10.3718 13.3221 10.3718 13Z" fill="white"/>
</svg>
